<svg width="140" height="53" viewBox="0 0 140 53" fill="none" xmlns="http://www.w3.org/2000/svg">
<path d="M0 47.2949L9.04479 27.6142H12.5343L21.5791 47.2949H17.2242L15.3817 43.0238H6.19735L4.38281 47.2949H0ZM10.7477 32.2203L7.64899 39.646H13.958L10.8035 32.2203H10.7477Z" fill="#111534"/>
<path d="M28.1127 47.602C26.9216 47.602 25.8701 47.3136 24.9582 46.7366C24.0649 46.1411 23.367 45.3129 22.8645 44.2521C22.362 43.1727 22.1108 41.8978 22.1108 40.4276C22.1108 38.9574 22.362 37.6918 22.8645 36.631C23.367 35.5702 24.0649 34.7513 24.9582 34.1744C25.8701 33.5975 26.9216 33.309 28.1127 33.309C29.0247 33.309 29.8621 33.5044 30.6252 33.8953C31.3882 34.2861 31.9651 34.8072 32.356 35.4586V27.6142H36.5713V47.2949H32.4397V45.2292C32.0675 45.955 31.4906 46.5319 30.7089 46.9599C29.9459 47.388 29.0805 47.602 28.1127 47.602ZM29.369 44.4475C30.2623 44.4475 30.9881 44.1218 31.5464 43.4704C32.1233 42.8191 32.4118 41.8048 32.4118 40.4276C32.4118 39.069 32.1233 38.0734 31.5464 37.4406C30.9881 36.7892 30.2623 36.4635 29.369 36.4635C28.4756 36.4635 27.7498 36.7892 27.1915 37.4406C26.6332 38.0734 26.354 39.069 26.354 40.4276C26.354 41.8048 26.6332 42.8191 27.1915 43.4704C27.7498 44.1218 28.4756 44.4475 29.369 44.4475Z" fill="#111534"/>
<path d="M44.4534 47.602C43.4298 47.602 42.5272 47.4066 41.7456 47.0158C40.9639 46.625 40.3405 46.0946 39.8752 45.4246C39.4285 44.7546 39.2052 44.0009 39.2052 43.1634C39.2052 42.177 39.4658 41.3861 39.9869 40.7905C40.5079 40.195 41.3547 39.7762 42.5272 39.5343C43.6997 39.2737 45.2537 39.1435 47.1892 39.1435H48.1942V38.6689C48.1942 37.85 48.0081 37.2731 47.6358 36.9381C47.2636 36.5845 46.6309 36.4077 45.7375 36.4077C44.9931 36.4077 44.2022 36.5287 43.3647 36.7706C42.5458 36.9939 41.7269 37.3382 40.9081 37.8035L39.7635 34.984C40.2474 34.6676 40.8336 34.3791 41.5222 34.1186C42.2294 33.858 42.9646 33.6626 43.7276 33.5323C44.4906 33.3835 45.2164 33.309 45.905 33.309C48.0267 33.309 49.6086 33.7929 50.6508 34.7607C51.693 35.7098 52.2141 37.1893 52.2141 39.1993V47.2949H48.2779V45.2292C47.9987 45.955 47.5242 46.5319 46.8542 46.9599C46.2028 47.388 45.4026 47.602 44.4534 47.602ZM45.4026 44.7825C46.1842 44.7825 46.8449 44.5126 47.3846 43.9729C47.9243 43.4332 48.1942 42.7353 48.1942 41.8792V41.3209H47.2171C45.7841 41.3209 44.7698 41.4512 44.1743 41.7117C43.5787 41.9537 43.2809 42.3817 43.2809 42.9959C43.2809 43.517 43.4577 43.945 43.8113 44.28C44.1836 44.615 44.714 44.7825 45.4026 44.7825Z" fill="#111534"/>
<path d="M55.3585 52.3198V33.5882H59.4901V35.626C59.8623 34.9188 60.43 34.3605 61.193 33.9511C61.9746 33.523 62.8493 33.309 63.8171 33.309C65.0082 33.309 66.0504 33.5975 66.9437 34.1744C67.8556 34.7513 68.5628 35.5702 69.0653 36.631C69.5678 37.6918 69.819 38.9574 69.819 40.4276C69.819 41.8978 69.5678 43.1727 69.0653 44.2521C68.5628 45.3129 67.8556 46.1411 66.9437 46.7366C66.0504 47.3136 65.0082 47.602 63.8171 47.602C62.9052 47.602 62.0677 47.4066 61.3046 47.0158C60.5602 46.625 59.9833 46.1039 59.5739 45.4525V52.3198H55.3585ZM62.5609 44.4475C63.4542 44.4475 64.18 44.1218 64.7383 43.4704C65.2966 42.8191 65.5758 41.8048 65.5758 40.4276C65.5758 39.069 65.2966 38.0734 64.7383 37.4406C64.18 36.7892 63.4542 36.4635 62.5609 36.4635C61.6489 36.4635 60.9138 36.7892 60.3555 37.4406C59.7972 38.0734 59.518 39.069 59.518 40.4276C59.518 41.8048 59.7972 42.8191 60.3555 43.4704C60.9138 44.1218 61.6489 44.4475 62.5609 44.4475Z" fill="#111534"/>
<path d="M78.9886 47.602C75.1362 47.602 73.21 45.7316 73.21 41.9909V36.7427H70.6138V33.5882H73.21V29.5683H77.4253V33.5882H81.4731V36.7427H77.4253V41.8234C77.4253 42.6051 77.6021 43.1913 77.9557 43.5821C78.3279 43.9729 78.9141 44.1683 79.7144 44.1683C79.9563 44.1683 80.2076 44.1404 80.4681 44.0846C80.7473 44.0288 81.045 43.9543 81.3614 43.8613L81.9756 46.932C81.5848 47.1368 81.1195 47.2949 80.5798 47.4066C80.0401 47.5369 79.5097 47.602 78.9886 47.602Z" fill="#111534"/>
<path d="M83.3797 30.9362V27H87.93V30.9362H83.3797ZM83.5472 47.2949V33.5882H87.7625V47.2949H83.5472Z" fill="#111534"/>
<path d="M92.0777 47.2949V36.7427H89.4815V33.5882H92.0777C92.1149 31.6527 92.6732 30.201 93.7527 29.2333C94.8507 28.2469 96.5163 27.6886 98.7496 27.5583L100.285 27.4467L100.536 30.5174L99.2242 30.6012C98.1448 30.657 97.3817 30.8896 96.9351 31.2991C96.507 31.6899 96.293 32.2947 96.293 33.1136V33.5882H99.8663V36.7427H96.293V47.2949H92.0777Z" fill="#111534"/>
<path d="M102.41 52.3198L105.034 46.5412L99.395 33.5882H103.834L107.267 42.298L110.813 33.5882H115L106.709 52.3198H102.41Z" fill="#111534"/>
<path fill-rule="evenodd" clip-rule="evenodd" d="M114.228 29.4819C113.953 29.4549 113.678 29.4168 113.406 29.3678C113.206 29.332 113.019 29.2441 112.864 29.113C112.709 28.982 112.591 28.8123 112.522 28.6211C112.453 28.43 112.436 28.2241 112.472 28.0242C112.508 27.8243 112.597 27.6374 112.728 27.4824C113.36 26.7367 113.792 25.8421 113.983 24.8831C114.018 24.7058 113.949 24.3944 113.591 24.046C111.047 21.5716 109.469 18.2154 109.469 14.5C109.469 6.74542 116.295 0.625 124.5 0.625C132.705 0.625 139.531 6.74542 139.531 14.5C139.531 22.2546 132.705 28.375 124.5 28.375C123.216 28.375 121.967 28.2255 120.774 27.9449C118.823 29.1706 116.52 29.7115 114.228 29.4819Z" fill="#5251A6"/>
<path d="M136.12 14.8354C136.12 15.7514 135.944 16.5279 135.591 17.1648C135.239 17.8017 134.762 18.2855 134.16 18.6162C133.561 18.9468 132.889 19.1122 132.144 19.1122C131.396 19.1122 130.722 18.9455 130.123 18.6121C129.524 18.2788 129.049 17.795 128.696 17.1608C128.347 16.5239 128.172 15.7487 128.172 14.8354C128.172 13.9193 128.347 13.1428 128.696 12.5059C129.049 11.869 129.524 11.3852 130.123 11.0546C130.722 10.7239 131.396 10.5586 132.144 10.5586C132.889 10.5586 133.561 10.7239 134.16 11.0546C134.762 11.3852 135.239 11.869 135.591 12.5059C135.944 13.1428 136.12 13.9193 136.12 14.8354ZM134.063 14.8354C134.063 14.2933 133.985 13.8353 133.831 13.4613C133.679 13.0873 133.46 12.804 133.172 12.6116C132.888 12.4192 132.545 12.323 132.144 12.323C131.745 12.323 131.402 12.4192 131.115 12.6116C130.828 12.804 130.607 13.0873 130.453 13.4613C130.301 13.8353 130.225 14.2933 130.225 14.8354C130.225 15.3774 130.301 15.8355 130.453 16.2095C130.607 16.5835 130.828 16.8667 131.115 17.0591C131.402 17.2516 131.745 17.3478 132.144 17.3478C132.545 17.3478 132.888 17.2516 133.172 17.0591C133.46 16.8667 133.679 16.5835 133.831 16.2095C133.985 15.8355 134.063 15.3774 134.063 14.8354Z" fill="white"/>
<path d="M121.195 18.9978V10.6719H127.001V12.3062H123.208V14.0136H126.704V15.652H123.208V17.3635H127.001V18.9978H121.195Z" fill="white"/>
<path d="M118.139 13.1686C118.112 12.8704 117.991 12.6387 117.777 12.4734C117.565 12.3054 117.263 12.2213 116.87 12.2213C116.61 12.2213 116.393 12.2552 116.22 12.323C116.046 12.3907 115.916 12.4842 115.83 12.6035C115.743 12.72 115.698 12.8542 115.695 13.006C115.69 13.1306 115.714 13.2404 115.769 13.3352C115.825 13.4301 115.907 13.5141 116.012 13.5873C116.121 13.6578 116.251 13.7201 116.403 13.7743C116.555 13.8285 116.725 13.8759 116.915 13.9166L117.63 14.0792C118.042 14.1687 118.406 14.2879 118.72 14.437C119.037 14.586 119.303 14.7636 119.517 14.9695C119.734 15.1755 119.898 15.4127 120.009 15.681C120.12 15.9493 120.177 16.2501 120.179 16.5835C120.177 17.1093 120.044 17.5605 119.781 17.9373C119.518 18.314 119.14 18.6026 118.647 18.8032C118.156 19.0037 117.564 19.104 116.87 19.104C116.174 19.104 115.567 18.9997 115.049 18.791C114.531 18.5823 114.129 18.2652 113.842 17.8397C113.554 17.4142 113.407 16.8762 113.398 16.2257H115.325C115.342 16.4941 115.414 16.7176 115.541 16.8965C115.668 17.0754 115.843 17.2109 116.065 17.3031C116.29 17.3952 116.55 17.4413 116.846 17.4413C117.117 17.4413 117.347 17.4047 117.537 17.3315C117.729 17.2583 117.877 17.1567 117.98 17.0266C118.083 16.8965 118.136 16.7475 118.139 16.5794C118.136 16.4222 118.087 16.2881 117.992 16.177C117.897 16.0631 117.751 15.9656 117.553 15.8842C117.358 15.8002 117.109 15.723 116.805 15.6525L115.935 15.4492C115.214 15.2839 114.647 15.017 114.232 14.6484C113.817 14.2771 113.611 13.7757 113.614 13.1442C113.611 12.6292 113.749 12.178 114.029 11.7904C114.308 11.4028 114.694 11.1006 115.187 10.8838C115.68 10.667 116.243 10.5586 116.874 10.5586C117.519 10.5586 118.079 10.6684 118.553 10.8879C119.03 11.1047 119.4 11.4096 119.663 11.8026C119.926 12.1956 120.06 12.6509 120.066 13.1686H118.139Z" fill="white"/>
</svg>
